<?xml version="1.0" encoding="utf-8"?>
<!-- Generator: Adobe Illustrator 19.0.1, SVG Export Plug-In . SVG Version: 6.00 Build 0)  -->
<svg version="1.1" id="Layer_1" xmlns="http://www.w3.org/2000/svg" xmlns:xlink="http://www.w3.org/1999/xlink" x="0px" y="0px"
	 viewBox="0 0 960 960" style="enable-background:new 0 0 960 960;" xml:space="preserve">
<style type="text/css">
	.st0{fill:#FFFFFF;}
</style>
<g>
	<g>
		<path class="st0" d="M1965.9-1798.3c20.9,17.8,41.3,36.1,62,54.2c20.2,18.6,40.4,37.1,60.4,55.9c19.6,19.2,39.6,38.1,58.9,57.6
			l28.8,29.4l14.4,14.7c1.7,1.7,12.1,12.3,10.4,10.9l6,6.5l23.8,25.9l30.4,33.9l15.4,17.4c2.7,3,4.8,5.6,7.2,8.3l6.9,8.2l27.5,32.8
			l26.8,33.5l13.4,16.8l13,17.1l25.9,34.3l25.1,34.9c8.4,11.6,16.5,23.4,24.6,35.3c8,11.9,16.3,23.6,24.1,35.7
			c15.6,24.1,31.3,48.1,46,72.8c15.2,24.4,29.3,49.4,43.7,74.3c7.1,12.5,13.8,25.2,20.7,37.8l10.3,18.9l9.9,19.2
			c105.7,204.3,182.5,423.9,226.8,649.8c44.4,225.9,56.7,457.9,36.3,687.1c-20.3,229.2-73.3,455.5-157.4,669.7
			c-83.9,214.2-199.1,416-340,596.6c-35.1,45.3-72.2,88.8-110.2,131.4c-19.4,20.9-38.5,42.2-58.6,62.4c-10,10.2-19.8,20.6-30,30.5
			l-30.5,29.9l-14.1,13.7l-6.8,6.1l-13.5,12.2l-27.1,24.4l-13.5,12.2l-18.1,15.3l-37.1,30.8l-18.6,15.3l-9.3,7.6
			c-3.2,2.6-6,4.5-9,6.8l-35.6,26.4l-35.7,26.2c-12.2,8.4-24.5,16.5-36.8,24.7c-98.1,65.7-202,122.5-309.9,169.4
			c-107.9,46.9-220,83.3-333.8,109.7c-227.8,52.8-463.4,64.1-692.5,34.5c-114.5-14.8-227.6-39.4-337-74.5
			c-109.5-34.9-215.5-79.5-316.4-133c-100.9-53.4-196.7-115.7-285.9-185.5c-22-17.9-44-35.5-65.7-53.7c-21-18.9-41.9-37.7-62.9-56.6
			c-5.3-4.6-10.3-9.6-15.3-14.6l-15-14.9l-29.8-29.8l-14.9-14.9c-12.5-12.8-6.9-7.4-11.3-12l-6-6.7l-24-26.7
			c-81.1-91.3-146.8-185.1-202.5-286.9c-55.5-101.4-99.5-208.4-131.3-318.2c-64.2-219.7-77-450.6-43.1-671.5
			c33.3-221.2,116.5-432.2,237.4-614.6c60.4-91.2,130.3-175.2,207.3-250.4l7.1-7.1c4.1-4,0.8-1,11.1-10.8l12.8-11.5l25.6-23
			l34.9-29.1l17.6-14.4c5.7-4.5,11.2-8.4,16.8-12.6l33.5-24.7c11.4-7.9,23-15.5,34.6-23.2l17.3-11.4c5.8-3.8,11.8-7.2,17.7-10.8
			l35.7-21.1c12-6.8,24.3-13.1,36.5-19.6l18.3-9.6c6.1-3.2,12.4-6,18.6-8.9l37.4-17.4c12.6-5.5,25.4-10.5,38.1-15.8l19.1-7.7
			c6.3-2.6,12.9-4.7,19.3-7l38.7-13.6c13-4.2,26.1-7.9,39.2-11.8l19.6-5.8c6.6-1.8,13.2-3.3,19.8-5c13.2-3.2,26.4-6.4,39.6-9.7
			c13.3-2.8,26.6-5.3,39.9-7.9l19.9-3.8l20.1-3c13.4-1.9,26.7-3.8,40.1-5.8c13.4-1.3,26.8-2.6,40.2-3.9l20.1-1.9l20.1-1
			c13.4-0.6,26.8-1.3,40.2-1.8c13.4,0,26.8,0,40.2-0.1c6.7,0,13.4-0.1,20.1,0.1l20,0.9c13.3,0.7,26.7,1.2,40,2
			c13.3,1.3,26.5,2.5,39.8,3.8c6.6,0.7,13.2,1.2,19.8,2.1l19.7,2.8c13.1,1.9,26.3,3.7,39.4,5.8c13,2.5,26,5,39,7.5
			c6.5,1.3,13,2.4,19.4,3.9l19.3,4.6c12.8,3.2,25.7,6.2,38.4,9.5c12.6,3.7,25.3,7.4,37.9,11.2c6.3,1.9,12.6,3.7,18.9,5.7l18.6,6.5
			c12.4,4.3,24.8,8.6,37.1,13.1c12.2,4.9,24.3,9.8,36.5,14.7l18.2,7.4l17.8,8.2c11.8,5.5,23.7,11,35.5,16.5c11.6,6,23.1,12,34.7,18
			l17.2,9.1c5.7,3.1,11.3,6.5,16.9,9.7c89.9,52,173,114.1,245.5,185.6l27,26.9c-0.7-0.7,8.6,8.6,9.5,9.8l5.4,6L1202-341l10.9,12.1
			l13.8,16.4l13.6,16.5l6.8,8.3c2.3,2.8,4,5.3,6,8c7.8,10.5,15.5,21.1,23.3,31.6c7.5,10.7,14.6,21.7,21.8,32.5
			c3.5,5.5,7.3,10.8,10.6,16.4l10,16.8c6.6,11.2,13.5,22.3,19.3,33.9c25.2,45.5,45.7,93.1,63.2,141.5l6.4,18.2l3.2,9.1l2.8,9.2
			c3.6,12.3,7.3,24.6,10.9,36.8c6.2,24.8,12.6,49.5,17,74.6c19.4,99.9,22.4,201.6,11.5,300.6c-5.9,49.5-15.2,98.3-27.7,146
			c-13.1,47.6-29.5,94-48.9,138.8c-19.6,44.8-42.8,87.7-68.3,128.7c-25.8,40.9-54.8,79.4-85.5,115.9c-16,17.7-31.5,35.8-48.6,52.2
			l-12.6,12.6l-6.3,6.3c-7.2,6.9-5.2,4.8-8.3,7.7l-11.2,10.1l-5.6,5c-1.7,1.6-3.7,3.3-6.5,5.7c-10.2,8.6-20.5,17-30.7,25.4
			c-9.8,7.3-19.6,14.5-29.4,21.8c-20,13.9-40.3,27.3-61.3,39.3c-83.9,48.6-175.5,81.3-268.5,97c-186.3,31.2-377.7-5.5-532.3-97.1
			c-38.6-22.8-75.4-48.3-109-77c-8.5-7-16.5-14.6-24.8-21.9c-8.3-7.2-16-15.1-23.7-22.8l-11.6-11.6c-1.6-1.6-7.4-7.6-7.1-7.5
			l-4.7-5.2l-9.3-10.4c-1.3-1.4-3.8-4.4-5.6-6.6l-5.9-7.1l-11.7-14.2c-3.6-4.6-6.8-9.1-10.2-13.6l-10-13.6l-9.4-14
			c-3.1-4.7-6.2-9.3-9.2-14.1l-8.6-14.4c-2.8-4.8-5.8-9.6-8.4-14.5l-7.8-14.8c-20.6-39.6-36.9-81-48.7-123.3
			c-23.8-84.6-29.1-172.5-17.8-256.8c11.3-84.3,39.5-165,81.5-236c20.9-35.5,45.3-68.7,72.2-98.9c6.8-7.5,13.5-15.1,20.7-22.1
			l10.7-10.7c0.2-0.2,5.7-5.8,6.9-6.7l4.8-4.3l9.5-8.6l6.3-5.3l6.5-5.4l6.5-5.4c2.2-1.8,4.4-3.5,6.4-5l12.5-9.2
			c33.4-24.3,69.8-44,107.5-59.3c18.8-7.8,38.1-13.9,57.4-19.4c19.5-5,39.1-9.4,58.8-12.2c78.9-11.9,158.7-4.5,231.9,19
			C630.8,27.9,697.1,68,750.2,119.3l9.8,9.7l4.9,4.9c1.5,1.4,5.2,5.5,5.5,5.8l7.8,8.7c1.1,1.2,3.2,3.7,4.7,5.6l4.9,6l4.9,6
			c1.7,2,2.9,3.8,4.4,5.8l8.4,11.4c2.7,3.9,5.3,7.8,7.9,11.8c2.6,3.9,5.2,7.9,7.5,11.9c9.9,16,18.1,32.8,25.7,49.8
			c7.3,17.1,13.5,34.6,18.4,52.3c19.7,70.9,19.6,145.2,1.6,213.2c-9,34-22.2,66.6-39.3,96.5c-17.2,29.9-37.6,57.4-61.2,81.3
			l-8.9,8.9c-1.3,1.4-4.9,4.7-5.2,5l-4,3.6l-4,3.6l-5.4,4.5c-3.6,2.9-7.3,6.2-10.8,8.7c-13.6,10.5-28.2,19.7-43.1,27.9
			c-14.9,8.2-30.5,15-46.4,20.7c-7.9,2.9-16,5.2-24,7.6c-8.1,2-16.2,4.1-24.4,5.5c-65.3,12.5-132.3,4.4-190.2-20.8
			c-14.5-6.4-28.4-13.7-41.7-21.8c-13.2-8.4-25.8-17.4-37.5-27.3c-3-2.4-5.7-5.1-8.6-7.6c-2.8-2.6-5.7-5.1-8.3-7.8l-8.1-8.1
			c-4.4-4.7-3-3.4-4.9-5.4l-3.2-3.7c-4.3-5.1-8-8.9-13.4-16.7l-7.4-10.4l-3.6-5.2c-1.2-1.7-2-3.4-3-5.1
			c-16.2-26.5-27.1-55.6-32.7-85.2c-5.7-29.6-6.1-59.6-1.9-88.5c4.3-28.9,13.2-56.7,26.7-81.8l2.4-4.8c0.8-1.6,1.8-3,2.7-4.5l5.6-9
			c1.9-3,3.7-6,5.7-8.9l6.4-8.3c4.4-5.5,8.3-11.2,13.2-16.1l7.1-7.5l3.6-3.7c1.8-1.8,1-1.3,4.9-4.9c4.5-3.8,9-7.6,13.4-11.4
			c6.2-4.6,12.5-9.1,18.7-13.3c6.1-3.5,12.2-6.9,18.3-10.2c6.4-2.8,12.7-5.7,19.1-8.3c25.9-9.7,53.2-14,79.8-13.2
			c26.7,0.8,52.7,6.8,76.4,17.1c23.7,10.3,44.9,25.1,62.4,42.7l3.4,3.2c3.2,3.3,2.4,2.6,3.7,4.1l5.2,6c0.9,1.1,1.6,1.7,2.7,3.3
			l3.1,4.2l6,8.5c3.5,5.6,6.4,11,9.4,16.6c2.5,5.8,5.3,11.4,7.2,17.3c8.3,23.5,11.2,48.2,9,72c-2.2,23.8-9.5,46.7-21.1,66.6
			l-4.5,7.3c-1.5,2.4-3,4.9-4.8,7.1l-5.2,6.7c-1.7,2.3-3.5,4.5-5.5,6.4l-5.8,6.1l-2.9,3c-2.7,2.5-2.3,2-3.6,3.2l-5.4,4.6
			c-0.7,0.7-2.3,1.8-3.5,2.6l-3.8,2.7c-38.5,27.2-86.8,30.3-125.6,14.6c-19.6-7.7-36.3-20.1-49.7-35.3c-2.5-2.7-6.1-7.8-9.2-12.3
			c-1.5-2.3-2.6-4.5-3.9-6.7l-1.8-3.3l-1.5-3.5c-4.3-9.1-6.9-18.9-8.4-28.6c-1.6-9.7-1.3-19.5-0.2-29c1.3-9.5,3.9-18.7,7.4-27.4
			c3.8-8.5,8.3-16.7,14.1-23.8c5.6-7.2,12.1-13.6,19.2-18.7c4.1-3.1,8.1-5.2,12-7.4c4.1-1.9,8.3-3.7,12.6-4.9c8.5-2.6,17.3-4,26-3.8
			c8.7,0.2,17.2,1.6,25.2,4.1c8,2.7,15.5,6.5,22.2,11.1c3.2,2.5,6.5,4.9,9.4,7.8l2.2,2.1c0.7,0.6,2.1,2.2,2.3,2.4l1.7,2
			c0.6,0.7,1.1,1.2,1.8,2.2c1.3,1.8,2.6,3.6,3.8,5.4l3,5.3c1.7,3.7,3.3,7.4,4.4,11.2c4.5,15.3,3.5,31.5-2.3,45.2
			c-2.9,6.9-6.9,13.1-11.6,18.5l-3.7,3.9c-1.3,1.2-1.4,1.2-2.1,1.9l-1.7,1.5c-1.4,1.1-3.2,2.3-4.7,3.4c-1.6,1-3.2,1.8-4.7,2.7
			c-12.9,6.5-27.7,7.4-40.4,3.4c-6.4-2-12.2-5.2-17.2-9.2c-1.3-0.9-2.4-2.1-3.6-3.1l-1.7-1.6c-1-1.1-1-1.2-1.6-1.8
			c-0.5-0.5-0.9-1-1.3-1.6l-1.5-2.1c-1.1-1.4-1.8-2.8-2.6-4.2c-6.1-11.3-6.4-24.6-2.2-35.5c2.1-5.5,5.3-10.4,9.2-14.4
			c0.6-0.6,0.8-0.9,1.6-1.6l1.4-1.2c0.8-0.7,2.4-1.8,3.5-2.6c2.4-1.5,4.9-2.7,7.6-3.6c10.5-3.6,21.9-1.4,30.1,4.3
			c2.1,1.5,3.8,3,5.7,5c1.3,1.3,3.2,4,4.2,6c2.2,4.4,3.2,9.2,2.9,13.8c-0.2,4.6-1.7,9.1-4,12.8c-1.1,1.9-2.5,3.5-4,5
			c-1,1-1.3,1.2-2.4,2c-0.9,0.7-1.9,1.3-2.8,1.8c-7.6,4-16.7,2.8-22.7-1.7c-0.7-0.6-1.5-1.1-2.1-1.8c-0.2-0.2-0.8-0.7-1-1l-0.8-0.9
			c-1.3-1.6-2.1-3.2-2.7-4.9c-1.2-3.4-1.3-7-0.4-10.2c1.7-6.4,7.3-11.3,13.3-11.5c5.9-0.3,11.1,3.2,12.8,8c1.7,4.8-0.4,9.8-3.8,12
			c-3.5,2.4-7.8,1.5-10.1-0.6c-2.5-2.1-2.8-5.5-1.8-7.6c1-2.2,2.8-3.3,4.4-3.4c3.2-0.2,4.2,1.7,4.2,1.5c0,0.2-1.1-1.6-4.1-1.3
			c-1.5,0.2-3.1,1.4-3.9,3.4c-0.8,2-0.3,4.9,1.9,6.6c2.1,1.8,5.9,2.2,8.6,0.1c2.7-2,4.1-6.3,2.6-9.9c-1.4-3.6-6-6.3-10.4-5.7
			c-4.6,0.4-8.6,4.4-9.6,9.4c-0.6,2.5-0.3,5.2,0.7,7.6c0.5,1.2,1.3,2.4,2,3.3l0.8,0.9c0.3,0.3,0.4,0.3,0.7,0.6
			c0.5,0.5,1.1,0.9,1.7,1.3c4.7,3.2,11.5,3.6,16.8,0.4c5.1-3.1,8.9-9.7,8.8-16.4c0-3.4-0.9-6.8-2.6-9.7c-1-1.6-1.6-2.4-3.3-4.2
			c-1.1-1.1-2.7-2.3-4.2-3.3c-6.3-3.8-14.6-4.8-21.7-1.9c-1.8,0.7-3.5,1.7-5.1,2.7c-0.7,0.6-1.2,0.9-2.2,1.8l-1.3,1.2
			c-0.1,0-0.6,0.7-0.9,1c-2.7,3.1-4.8,6.8-6.1,10.8c-2.6,8-1.7,17.3,2.9,24.7c4.4,7.3,12.8,13.2,21.9,15.4
			c9.1,2.3,19.4,1.1,27.8-3.8l3-2l2.6-2l1.7-1.6c0.4-0.4,1.5-1.4,1.3-1.3l2.5-3c3.2-4.1,5.7-8.7,7.5-13.6c3.5-9.9,3.5-21.2-0.1-31.4
			c-0.9-2.6-2.1-5-3.4-7.4l-2.2-3.4l-2.2-2.8c-0.2-0.4-1-1.1-1.5-1.7l-1.8-1.9c-1-1-0.7-0.8-1.3-1.2l-1.7-1.4c-2.1-2-4.6-3.5-7-5.2
			c-5-3-10.4-5.4-16-6.9c-5.7-1.4-11.7-2-17.6-1.8c-6,0.2-11.9,1.6-17.5,3.6c-2.9,1-5.5,2.4-8.2,3.8c-2.5,1.6-5.2,3.3-7.1,4.9
			c-5,4-9.4,8.8-13,14.1c-3.9,5.2-6.6,11.2-9,17.2c-2.1,6.2-3.5,12.6-4,19.2c-0.3,6.6-0.2,13.3,1.3,19.8c1.4,6.5,3.4,12.9,6.7,18.8
			l1.1,2.3l1.4,2.1c0.9,1.4,1.8,2.9,2.7,4.2c2,2.3,3.1,4.4,6.6,7.8c9.8,9.9,22.3,18.2,36.1,22.6c13.8,4.5,28.8,6.2,43.4,3.5l5.5-1
			l5.4-1.5c3.6-0.8,7-2.5,10.5-3.7c1.7-0.7,3.3-1.7,5-2.5c1.6-0.9,3.4-1.5,4.9-2.7c3.1-2,6.5-4,8.8-6.1
			c24.4-19.5,40.7-50.7,41.4-83.4c0.6-16.3-2.4-32.8-8.8-48c-1.5-3.8-3.7-7.4-5.4-11.1c-2.2-3.4-4.4-7.1-6.7-10.3
			c-1.2-1.4-2.3-2.8-3.4-4.2l-1.6-2.2c-0.4-0.6-1.7-1.8-2.5-2.7l-5.5-5.7c-0.4-0.4-2.9-3.1-1.7-1.7l-2.5-2.1
			c-13.2-11.8-28.5-21.2-45.2-27.3c-16.7-6.1-34.8-9.2-52.9-8.7c-18.1,0.5-36.2,4.5-52.9,11.9c-4.1,2-8.1,4.1-12.2,6.2
			c-3.8,2.4-7.7,4.9-11.6,7.4c-3.1,2.6-6.2,5-9.4,7.3c-4.2,4-8.4,8-12.6,12.1c1.7-1.6-0.9,1.2-1.1,1.5l-2.3,2.8l-4.7,5.6
			c-3.4,3.5-5.7,7.9-8.6,11.8l-4.2,6l-3.5,6.5l-3.5,6.4c-0.6,1.1-1.2,2.1-1.8,3.2l-1.4,3.4c-8.4,17.8-13.3,37.2-15.1,57.1
			c-3.5,39.5,6.1,81.1,29.4,114.2c0.7,1,1.3,2.3,2,3.1l2.1,2.5l4,5.2c1.8,3,7.2,8.3,11.5,12.8l3.4,3.5c0.4,0.4,3.9,4.1,1.7,1.7
			l6.1,5.4c2,1.8,4.1,3.5,6.2,5.2c2.1,1.7,4.1,3.4,6.3,5c8.6,6.5,17.8,12.2,27.2,17.5c9.5,5.1,19.4,9.6,29.6,13.4
			c40.8,15,86.7,17.7,129.6,6.8c5.4-1.2,10.6-3,15.9-4.6c5.2-1.9,10.4-3.7,15.5-5.9c10.2-4.4,20.1-9.3,29.5-15.3
			c9.4-5.9,18.5-12.4,26.9-19.8c2.2-1.8,3.6-3.4,5.5-5l2.7-2.4l3.8-3.8l3.8-3.8c2.2-2.2,1.3-1.3,2.4-2.6l5.9-6.7
			c15.7-17.8,28.7-37.9,39.4-59.1c10.6-21.3,18.3-44.1,23.1-67.7c9.6-47.1,6.5-97.2-9.2-143.2c-3.9-11.5-8.7-22.7-14.1-33.6
			c-5.7-10.8-11.5-21.5-18.7-31.4c-1.6-2.6-3.4-5-5.3-7.4l-5.5-7.3c-3.9-4.5-8-9.9-11.5-13.4l-2.7-2.9c-1.1-1.1-1.4-1.7-3-3.2
			l-8.3-8.3c-2.5-2.5-1.3-1.3-2.7-2.6l-3.7-3.2l-7.3-6.5c-39.4-33.9-86.8-58.5-137.5-72c-50.8-13.1-105.2-14.9-157.2-3.8
			c-13,2.5-25.8,6.3-38.5,10.3c-12.5,4.5-25,9.1-37,15c-24,11.4-46.9,25.5-67.5,42.5l-7.7,6.4c-1.4,1.1-2.5,2.1-3.5,3.1l-3.2,3
			l-6.6,6.1l-9.1,9.1l-4.5,4.6c-2,2,0.6-0.3-2.1,2.5l-7.1,8c-4.9,5.2-9.2,10.8-13.6,16.4c-17.7,22.3-33.2,46.2-46.2,71.5
			c-26.1,50.6-42,106.8-46.3,164.2c-4.4,57.4,2.7,116.1,21.7,170.9c9.4,27.4,21.7,53.8,36.6,78.7l5.6,9.3c1.9,3.1,4,6,6,9.1l6.1,9
			c2.1,3,4.4,5.8,6.5,8.7l6.5,8.7l7,8.4c2.3,2.7,4.7,5.7,6.9,8.3l6.5,6.9c42.1,44.9,92.3,82.7,147.5,110.7
			c109.8,57,241.5,73.4,363.9,45.5c61.2-14.1,119.7-39.1,172.1-73.7c13.2-8.6,25.7-18,38.2-27.7l18.1-15.1c4.9-4.7,9.9-9.3,15-13.9
			c1.1-0.9,2.8-2.6,4.6-4.5l5.3-5.4l10.7-10.7c0.6-0.6,6.2-6.2,2.7-2.8l4.1-4.7l8.3-9.4c11.5-12.2,21.4-25.6,32-38.5
			c19.9-26.8,38.5-54.6,54.6-83.8c15.8-29.4,30.1-59.7,41.7-91.1c11.4-31.5,20.7-63.7,27.8-96.5c6.6-33,10.9-66.4,13-100
			c3.4-67.2-2.5-135.3-19.4-200.6c-3.8-16.4-9.2-32.5-14-48.6l-8.6-23.8l-2.1-5.9l-2.5-5.8l-4.9-11.7
			c-13.3-30.9-28.3-61.2-46.5-89.7c-4.1-7.3-9.2-14.2-13.8-21.2l-7-10.5c-2.3-3.6-5-6.8-7.5-10.2c-5.1-6.7-10-13.6-15.3-20.2
			l-16.2-19.5c-1.3-1.5-2.7-3.4-4-4.7l-3.8-4l-7.4-8l-7.3-8.1l-11.4-11.4l-11.5-11.4l-5.8-5.7c-2.7-2.8,2.6,3-2-1.5l-20.1-17.8
			c-53.7-47.5-114-86.8-177.8-119c-4-2-7.9-4.2-11.9-6.1l-12.2-5.5l-24.4-11.1l-25-9.8l-12.5-5l-12.7-4.3l-25.4-8.6l-25.8-7.4
			l-12.9-3.7c-4.3-1.2-8.7-2-13.1-3.1l-26.2-6.1c-8.8-1.8-17.7-3.2-26.5-4.9l-13.2-2.5c-4.4-0.8-8.9-1.2-13.3-1.8l-26.7-3.6
			c-8.9-0.9-17.9-1.5-26.8-2.3l-13.4-1.2c-4.5-0.4-9-0.3-13.5-0.5l-26.9-1c-9,0-18,0.2-27,0.3l-13.5,0.1c-4.5,0.1-9,0.5-13.5,0.8
			l-26.9,1.5l-26.8,2.9l-13.4,1.4l-13.3,2.1l-26.6,4.1l-26.4,5.5l-13.2,2.7l-13,3.4l-26.1,6.7l-25.7,8c-4.3,1.3-8.6,2.5-12.8,4
			l-12.6,4.6c-8.4,3.1-16.9,6-25.3,9.2l-24.8,10.4c-4.1,1.8-8.3,3.3-12.4,5.3L-6-256.6c-8.1,3.9-16.2,7.6-24.2,11.6l-23.6,12.8
			c-3.9,2.2-8,4.1-11.8,6.5l-11.5,7c-7.6,4.7-15.4,9.1-22.9,14l-22.2,15.1c-3.7,2.6-7.5,4.9-11.1,7.6L-144-174
			c-7.1,5.4-14.4,10.7-21.5,16.2l-20.6,17.3c-3.4,2.8-7.1,5.8-10.2,8.5l-8.5,8c-5.7,5.3-11.4,10.5-17.2,15.6l-24.2,24.4l-12.1,12.2
			c6.1-5.9-1,1.4-0.9,1.5L-264-65c-51.2,56.1-96.3,117.4-134.4,182.8c-38,65.3-69,134.7-92.3,206.6c-3.3,8.9-5.6,18.1-8.2,27.1
			l-7.8,27.2c-2.5,9.1-4.3,18.4-6.6,27.6c-2.1,9.2-4.4,18.4-6.4,27.6l-5,27.9c-1.6,9.3-3.8,18.5-4.7,28l-3.7,28.1l-1.9,14l-1.1,14.2
			c-14.1,150.6,3.6,304.5,54.5,446.2c25.1,70.9,57.9,138.8,97.6,202.3c4.6,8.2,10.3,15.7,15.4,23.5l15.7,23.3
			c5.4,7.7,11.3,15,16.8,22.5c5.7,7.4,11.1,15.1,16.9,22.4l18,21.5l9,10.8l4.5,5.4l4.2,4.4c5.6,5.9,11.1,11.8,16.5,17.8l8.1,9
			c1,1.3,3.4,3.5,5.5,5.6l6.4,6.3l25.4,25.3l6.4,6.3c-0.2-0.3,9.4,9.6,1.2,0.9l11.1,9.8l22.2,19.7l11.1,9.9
			c3.7,3.3,7.3,6.6,11.3,9.6l46.2,37l47.9,34.7c64.8,44.8,133.2,83.8,204.5,116.4c71.3,32.6,145.4,58.8,221.1,78.3
			c75.7,19.6,153.4,31.6,231.2,37.1c155.7,10.9,312.8-6.2,461-49.7c74-21.8,146-49.8,214.4-84.5c68.4-34.7,133.3-75.4,194.1-121.5
			c7.6-5.8,15.3-11.3,22.9-17.1l21.9-18.4l22-18.2c1.7-1.5,3.9-3.1,5.3-4.5l4.5-4.3l9-8.4l18.1-16.6l4.6-4.1
			c1.6-1.5,2.8-2.4,4.8-4.4l12.8-12.9l25.7-25.8l12.8-12.9l6.4-6.5c-11.1,10.7-0.2-0.3-1.3,0.7l20.3-22.3
			c6.8-7.4,13.2-15.1,19.8-22.7c13.3-15,25.7-30.7,38.5-46.1c24.8-31.4,49-63.1,71.5-96c90.5-131,161.2-274,209.9-423.3
			c48.8-149.3,75.7-304.8,80.4-459.9c4.7-155.1-12.7-309.6-50.8-457.2c-37.9-147.6-96.8-288-173-416.2l-7.1-12.1l-7.4-11.9
			c-5-7.9-9.7-15.9-14.8-23.7c-10.3-15.5-20.3-31.2-31.1-46.3c-10.4-15.4-21.5-30.2-32.4-45.2c-5.5-7.5-11.3-14.7-16.9-22.1
			c-5.6-7.3-11.2-14.7-17.2-21.8l-17.5-21.5l-18-21.1l-9-10.5l-9.3-10.3l-18.5-20.6l-19-20.1l-4.7-5c-1.5-1.6-3.2-3.5-4.6-4.8
			l-8.5-8.4l-17.6-17.6l-25.2-24.5l-6.3-6.1c-5.7-5.7,0.6,0.8-2-1.6l-10.8-9.8l-21.5-19.6c-14.4-13-29.2-25.3-43.7-38.1
			c-14.9-12.2-29.7-24.5-44.6-36.7c-15.2-11.7-30.2-23.7-45.4-35.3c-61.1-46.1-124.4-88.6-189.3-127.3
			c-129.9-77.4-266.7-139.7-407.2-185.7c-140.4-46.1-284.2-77-427.9-91.8c-143.7-14.9-287.1-14.6-426.9-0.1
			c-139.8,14.5-275.9,43.7-405.6,85c-129.7,41.4-252.9,95.3-367.6,159.6c-114.7,64.3-221,138.9-317.7,221.5l-18.1,15.5
			c-6,5.2-11.8,10.6-17.7,15.9c-11.8,10.6-23.6,21-35,32.1l-17.2,16.2l-4.3,4c-1.5,1.4-3.7,1.9-4.8,3.1l-7.9,6.5l-11.3,17.4l-8,6.4
			l-10.4,9.9l-21,21.3l-10.5,10.6l-5.2,5.3c8.6-8.4,0,0.3,0.8-0.4c-11.1,12.2-22.1,24.3-33.2,36.4l-8.3,9l-8,9.3l-16,18.5
			c-10.7,12.3-21.4,24.5-31.5,37.1c-165.8,199.2-294.6,413.9-387.9,631.8c-23.2,54.5-44.9,109-63.7,163.8
			c-10,27.2-18.3,54.8-27.3,81.9c-4.2,13.7-8.2,27.4-12.3,41c-2,6.8-4.1,13.6-6.1,20.4c-1.9,6.8-3.7,13.7-5.6,20.5
			c-3.7,13.6-7.4,27.2-11.1,40.8c-3.3,13.6-6.7,27.2-10,40.8c-1.7,6.8-3.3,13.5-5,20.3c-1.5,6.8-3,13.6-4.4,20.4
			c-3,13.5-6,27-8.9,40.5c-0.3,1.7-1,3.4-1,5.1v1030.8c0,0.8,0.3,1.6,0.5,2.4c18,86.5,39.7,168.7,64.2,246.3
			c49,155.3,108.4,292.4,171,410.9c31.3,59.3,62.7,114.3,94.7,164.5c3.9,6.3,7.8,12.6,11.7,18.8c4,6.1,8,12.2,12,18.2
			c8,12,15.6,23.9,23.4,35.5c7.9,11.4,15.8,22.7,23.4,33.7c3.9,5.5,7.5,11.1,11.4,16.4c3.9,5.3,7.8,10.6,11.6,15.8
			c61,83.8,117.8,151.3,165.7,204.3c6,6.6,11.7,13.1,17.3,19.4c5.8,6.1,11.4,12,16.8,17.7c5.4,5.7,10.6,11.3,15.7,16.6
			c2.5,2.7,5,5.3,7.4,7.9c2.4,2.5,4.9,5.3,6.9,7.2c8.3,8.3,16,15.9,23,22.9c3.5,3.5,6.8,6.8,9.9,10c1.7,1.7,3.3,3.3,4.9,4.9
			c2.2,2.2,4.4,4.3,6.5,6.3c33.8,32.8,51.2,49.7,51.2,49.7l-195.1,190.2H2918v-4876H1760.5
			C1831.2-1907.8,1899.7-1854.5,1965.9-1798.3z"/>
		<path class="st0" d="M-1944.7-1801.8c18.6-15.9,37.8-31.1,57-46.4c9.6-7.6,19.2-15.4,28.9-22.9c9.8-7.4,19.6-14.9,29.4-22.4
			c29-22,58.6-44.1,88.6-64.6H-1958v167.4C-1953.6-1794.3-1949.2-1798-1944.7-1801.8z"/>
	</g>
</g>
</svg>
