<?xml version="1.0" encoding="utf-8"?>
<!-- Generator: Adobe Illustrator 19.0.1, SVG Export Plug-In . SVG Version: 6.00 Build 0)  -->
<svg version="1.1" xmlns="http://www.w3.org/2000/svg" xmlns:xlink="http://www.w3.org/1999/xlink" x="0px" y="0px"
	 viewBox="0 0 1120 1120" style="enable-background:new 0 0 1120 1120;" xml:space="preserve">
<style type="text/css">
	.st0{display:none;}
	.st1{display:inline;}
	.st2{fill:#FF0000;}
</style>
<g id="Layer_1" class="st0">
	<path class="st1" d="M560,575.6l800.1,0.1c0-140.6-37-278.9-107.1-400.1L560,575.6L560,575.6L960.5-117
		c-121.1-70.1-259.4-107.2-400-107.3L560,575.6L560,575.6L160.4-117.5C39.2-47.4-62.1,53.7-132.4,174.8L560,575.6l-799.9-0.6v0.6
		c0,140.3,36.9,278.3,106.6,399.3L560,575.6l-401.1,692.3c121,70.3,259.3,107.5,399.8,107.8L560,575.6L560,575.6l399,693.7
		c121.4-69.9,222.7-170.9,293.1-292L560,575.6L560,575.6z"/>
</g>
<g id="Layer_2">
</g>
<g id="Layer_5">
	<g>
		<g>
			<g id="XMLID_1_">
				<g>
					<path class="st2" d="M559.1,561l-992.9,573.3l-0.3,0.2C-531.6,965.8-587.4,770-587.5,561H559.1z"/>
					<path class="st2" d="M560,561v1147c-209.2,0-405.2-55.8-574-153.4l0.2-0.3L559.7,561H560z"/>
					<path class="st2" d="M1553.8,1134.3l0.3,0.2c-100.7,174.2-245.9,319.4-420.2,420.2l-0.2-0.3L560.3,561h0.6L1553.8,1134.3z"/>
					<path class="st2" d="M1707.5,560.5c0,0.2,0,0.3,0,0.5h-0.5H560.9l-0.9-0.5l993.8-573.8l0.3-0.2
						C1651.7,155.3,1707.5,351.3,1707.5,560.5z"/>
					<path class="st2" d="M1133.9-433.6l-0.2,0.3L560,560.5V-587C769.2-587,965.2-531.2,1133.9-433.6z"/>
					<path class="st2" d="M-13.8-433.3L560,560.5L-433.8-13.3l-0.3-0.2c100.7-174.2,245.9-319.4,420.2-420.2L-13.8-433.3z"/>
				</g>
				<g>
				</g>
			</g>
		</g>
	</g>
</g>
<g id="Layer_4">
</g>
</svg>
